<svg width="100" height="150" viewBox="0 0 100 150" fill="none" xmlns="http://www.w3.org/2000/svg">
<path d="M81.0162 27.8208V92.8208C81.0162 92.8208 54.121 140.821 49.5162 140.821C44.9114 140.821 18.0162 91.8208 18.0162 91.8208C17.9797 80.5147 18.0162 39.4438 18.0162 27.8208H24.5162C24.5162 27.8208 24.3234 72.3339 24.5162 89.8208L42.0162 118.321H57.0162L74.5162 89.8208V27.8208H81.0162Z" fill="#535353"/>
<path fill-rule="evenodd" clip-rule="evenodd" d="M61.52 101.459L69.02 89.8208V42.8208C65.9717 40.9701 63.5495 39.913 61.52 39.3325V101.459ZM44.52 112.321H48.52V38.6876C47.2179 38.3687 45.755 37.7968 44.02 36.8208C43.8611 36.7314 42.2383 34.4454 40.121 31.4627C36.2975 26.0764 30.8612 18.4182 29.52 17.3208C24.02 12.8208 19.02 8.82085 14.02 10.3208C14.02 12.1013 15.0767 13.3534 16.0403 14.4953C16.7003 15.2774 17.3167 16.0078 17.52 16.8208C10.52 18.3208 3.52 21.8208 2.52 28.8208C6.77189 28.8208 8.67665 27.4795 10.6064 26.1205C11.8537 25.2422 13.1114 24.3565 15.02 23.8208C25.9469 20.879 28.3959 26.0618 29.4929 28.3834C29.7011 28.8239 29.8605 29.1614 30.02 29.3208C30.0306 36.0309 30.014 43.9226 29.9968 52.0893C29.9692 65.2102 29.9401 79.0408 30.02 89.8208L44.52 112.321Z" fill="#F8BD1F"/>
<path d="M54.52 112.321L61.52 101.459V39.3325C55.8128 37.7001 53.2106 39.8362 48.52 38.6876V112.321H54.52Z" fill="#FFDE76"/>
</svg>
